# xmcd
#
# Track frame offsets: 
#        182
#        14382
#        29780
#        43250
#        57440
#        72667
#        86212
#        100247
#        112980
#        128595
#        141215
#        153812
#        164647
#        183737
#
# Disc length: 2662 seconds
#
# Revision: 3
# Processed by: cddbd v1.5.1PL2 Copyright (c) Steve Scherf et al.
# Submitted via: ExactAudioCopy v0.95a5
#
DISCID=ce0a640e
DTITLE=Tom Jones - Green Green Grass Of Home
DYEAR=1985
DGENRE=Pop
TTITLE0=Riders In The Sky
TTITLE1=He'll Have To Go
TTITLE2=Funny Familiar Forgotten Feelings
TTITLE3=Sixteen Tons
TTITLE4=Two Brothers
TTITLE5=My Mother Eyes
TTITLE6=Green Green Grass Of Home
TTITLE7=Ring Of Fire
TTITLE8=Field Of Yellow Daisies
TTITLE9=Wish I Could Say No To You
TTITLE10=All I Get From You Is Heartache
TTITLE11=Mohair Sam
TTITLE12=Cool Water
TTITLE13=Detroit City
EXTD=British release, not the American
EXTT0=
EXTT1=
EXTT2=
EXTT3=
EXTT4=
EXTT5=
EXTT6=
EXTT7=
EXTT8=
EXTT9=
EXTT10=
EXTT11=
EXTT12=
EXTT13=
PLAYORDER=
